Coordinates
version=1
nRows=29
nColumns=24
inDegrees=yes

Units are S.I. units (second, meters, Newtons, ...)
Angles are in degrees.

endheader
time	pelvis_tilt	pelvis_list	pelvis_rotation	pelvis_tx	pelvis_ty	pelvis_tz	hip_flexion_r	hip_adduction_r	hip_rotation_r	knee_angle_r	ankle_angle_r	subtalar_angle_r	mtp_angle_r	hip_flexion_l	hip_adduction_l	hip_rotation_l	knee_angle_l	ankle_angle_l	subtalar_angle_l	mtp_angle_l	lumbar_extension	lumbar_bending	lumbar_rotation
      5.16000000	      7.80729782	      2.36776068	      1.65265042	     -0.33088153	      0.89882465	      0.02871513	     14.98626226	      0.23914075	     -7.50217851	     -7.14558120	     17.40696066	      6.49205890	      0.00000000	    -27.71903934	      9.11045348	      7.20989539	     -9.54635727	     10.71282182	    -16.48604902	      0.00000000	    -27.70038208	     -0.35488990	     -9.56006583
      5.17000000	      8.04492195	      2.24304520	      1.38461525	     -0.31346756	      0.89787046	      0.02986664	     14.83239230	      0.67176914	     -6.93015200	     -8.50489713	     16.94400664	      6.04310892	      0.00000000	    -26.41273071	      8.75388613	      3.37932453	    -13.97679763	     11.76892576	    -11.54448357	      0.00000000	    -27.87244691	     -0.24510542	     -8.97224223
      5.18000000	      8.30070715	      1.93749694	      1.09994547	     -0.29617226	      0.89703928	      0.03105264	     14.78456734	      1.24080562	     -6.29661219	    -10.38276614	     16.35443843	      5.40963417	      0.00000000	    -24.91992299	      8.04859257	      0.29523653	    -18.63153988	     11.38424066	     -8.09777524	      0.00000000	    -28.07720326	      0.06585841	     -8.32651156
      5.19000000	      8.49154337	      1.54766084	      0.81683340	     -0.27906499	      0.89626838	      0.03222431	     14.95081423	      1.84159536	     -5.65596907	    -12.71558891	     16.05273690	      4.80509356	      0.00000000	    -23.13480128	      7.14731355	     -2.06762434	    -23.48559241	      9.66602937	     -5.84954756	      0.00000000	    -28.23032897	      0.46659709	     -7.68106174
      5.20000000	      8.71558485	      1.03080428	      0.62093915	     -0.26224972	      0.89571860	      0.03327774	     15.15823909	      2.50873362	     -5.20648127	    -15.29147170	     15.92709308	      4.26213397	      0.00000000	    -21.12737017	      5.98807976	     -3.89025282	    -28.54486708	      7.09906383	     -4.27155524	      0.00000000	    -28.47603112	      1.03258601	     -7.09606151
      5.21000000	      8.89683982	      0.42152047	      0.57579699	     -0.24573226	      0.89529149	      0.03414738	     15.40576348	      3.21044277	     -4.97295385	    -17.90723867	     16.13639810	      3.79362462	      0.00000000	    -18.83885494	      4.61966617	     -5.17072450	    -33.72821818	      4.04915684	     -3.07649314	      0.00000000	    -28.71794904	      1.73573552	     -6.64962307
      5.22000000	      9.00526326	     -0.27053665	      0.72642080	     -0.22949548	      0.89494809	      0.03479736	     15.61802483	      3.94480980	     -4.99211868	    -20.33516280	     16.69314085	      3.41222965	      0.00000000	    -16.28232417	      3.08130784	     -5.91203222	    -38.91488206	      1.03175759	     -2.02673833	      0.00000000	    -28.91166151	      2.57060013	     -6.36156117
      5.23000000	      9.04563251	     -1.02967160	      1.09577340	     -0.21348912	      0.89469828	      0.03523643	     15.68833953	      4.71062616	     -5.25537506	    -22.38096162	     17.54934660	      3.12867977	      0.00000000	    -13.53044563	      1.43255576	     -6.13413225	    -43.94907926	     -1.41329658	     -0.96955485	      0.00000000	    -29.04297680	      3.51553971	     -6.24959006
      5.24000000	      9.03435061	     -1.82980032	      1.69120323	     -0.19766697	      0.89459535	      0.03546976	     15.52003338	      5.49914238	     -5.73559250	    -23.89731185	     18.60659860	      2.89926326	      0.00000000	    -10.65678365	     -0.23427617	     -5.83876158	    -48.68770900	     -2.89255688	      0.15173565	      0.00000000	    -29.10770575	      4.54345306	     -6.25079126
      5.25000000	      8.98708815	     -2.61333500	      2.50080502	     -0.18201367	      0.89471633	      0.03553024	     15.06419094	      6.26981409	     -6.38704344	    -24.81801909	     19.74093080	      2.70665767	      0.00000000	     -7.71411352	     -1.79924623	     -5.07059373	    -53.01842833	     -3.23912850	      1.30351981	      0.00000000	    -29.11279135	      5.58237388	     -6.35060868
      5.26000000	      8.88061554	     -3.31599149	      3.43925620	     -0.16651126	      0.89507123	      0.03554047	     14.37700192	      6.98201739	     -7.12600949	    -25.19961498	     20.93400826	      2.58993502	      0.00000000	     -4.71023289	     -3.16320568	     -4.01355740	    -56.85864770	     -2.52648534	      2.40324026	      0.00000000	    -29.02087370	      6.52610793	     -6.59455891
      5.27000000	      8.77378475	     -3.89171005	      4.48387415	     -0.15115213	      0.89583322	      0.03547924	     13.40875305	      7.59656128	     -7.93186802	    -25.06567389	     22.05213360	      2.54728792	      0.00000000	     -1.74311590	     -4.22845333	     -2.70719790	    -60.13045199	     -1.02067722	      3.37621767	      0.00000000	    -28.90644337	      7.32673474	     -6.88928673
      5.28000000	      8.66565144	     -4.30239028	      5.54556376	     -0.13591175	      0.89704948	      0.03540591	     12.21196899	      8.08611592	     -8.74501006	    -24.51931850	     23.06124953	      2.59222403	      0.00000000	      1.14702720	     -4.95032361	     -1.32424523	    -62.79407316	      0.95898571	      4.19406697	      0.00000000	    -28.78436263	      7.92527482	     -7.21358929
      5.29000000	      8.58820021	     -4.53548699	      6.56829680	     -0.12076931	      0.89877828	      0.03533689	     10.80355561	      8.44130796	     -9.54676396	    -23.66271288	     23.90284966	      2.67856058	      0.00000000	      3.88605208	     -5.32303775	      0.02927658	    -64.83307978	      3.07107925	      4.83157992	      0.00000000	    -28.71373012	      8.30047569	     -7.49210035
      5.30000000	      8.47546561	     -4.59050691	      7.44699310	     -0.10562130	      0.90090007	      0.03536554	      9.28559285	      8.67216489	    -10.19966862	    -22.57979066	     24.61612661	      2.85970996	      0.00000000	      6.48551556	     -5.36933768	      1.20731876	    -66.24960908	      5.15753822	      5.33462295	      0.00000000	    -28.61603605	      8.42004995	     -7.71748540
      5.31000000	      8.32748117	     -4.48916189	      8.12502375	     -0.09040259	      0.90333112	      0.03552059	      7.69501379	      8.78838840	    -10.68086869	    -21.34821270	     25.18252645	      3.09245871	      0.00000000	      8.90361690	     -5.15324032	      2.12529321	    -67.06386343	      7.08012732	      5.73549247	      0.00000000	    -28.50969932	      8.30182228	     -7.81252670
      5.32000000	      8.17742809	     -4.24769097	      8.61819244	     -0.07509655	      0.90598206	      0.03577918	      6.01543865	      8.80965510	    -10.93664307	    -20.00319336	     25.57565449	      3.24436357	      0.00000000	     11.09030224	     -4.72242295	      2.80057948	    -67.31299360	      8.73548764	      5.99634844	      0.00000000	    -28.43749176	      7.97876460	     -7.78594424
      5.33000000	      7.97127414	     -3.92331184	      8.85326809	     -0.05962954	      0.90861023	      0.03621690	      4.34160896	      8.77210715	    -10.92371249	    -18.60956254	     25.84781088	      3.34419691	      0.00000000	     13.08569784	     -4.18814369	      3.15397330	    -67.04870175	     10.26334641	      6.19547107	      0.00000000	    -28.32951634	      7.48244134	     -7.49737181
      5.34000000	      7.74439847	     -3.53273973	      8.88376233	     -0.04400556	      0.91113121	      0.03679497	      2.63174252	      8.69732423	    -10.58773077	    -17.14972131	     25.97317701	      3.27785699	      0.00000000	     14.86328252	     -3.59802521	      3.24210940	    -66.30788476	     11.61923366	      6.28652961	      0.00000000	    -28.21940502	      6.86174219	     -7.01188712
      5.35000000	      7.56490507	     -3.14811310	      8.76165300	     -0.02823099	      0.91348739	      0.03747177	      0.77956468	      8.69887726	     -9.71283853	    -15.52437914	     25.73341818	      2.58185130	      0.00000000	     16.38032569	     -3.05094060	      3.13411339	    -65.14030899	     12.81075543	      6.13716526	      0.00000000	    -28.17460105	      6.23130668	     -6.34724453
      5.36000000	      7.33486045	     -2.70214795	      8.51127996	     -0.01234746	      0.91548572	      0.03815885	     -1.03961296	      8.60653471	     -8.62602806	    -13.90192293	     25.47677082	      1.83709041	      0.00000000	     17.74497798	     -2.45024575	      2.85729110	    -63.57073978	     13.77068999	      5.77647335	      0.00000000	    -28.08056294	      5.52116754	     -5.60405128
      5.37000000	      7.08167435	     -2.25459902	      8.22350610	      0.00361441	      0.91703626	      0.03879424	     -2.85524898	      8.49266970	     -7.35313755	    -12.24608965	     25.12086331	      0.79409755	      0.00000000	     18.97637915	     -1.85045696	      2.52525904	    -61.66351857	     14.58236643	      5.23293688	      0.00000000	    -27.96087696	      4.81588288	     -4.79346107
      5.38000000	      6.79510351	     -1.81943236	      7.88600920	      0.01965085	      0.91809838	      0.03937175	     -4.64191520	      8.35030584	     -5.94080436	    -10.58579252	     24.69043593	     -0.36768465	      0.00000000	     20.09425289	     -1.28226034	      2.11485960	    -59.43661473	     15.19576146	      4.56792111	      0.00000000	    -27.79107698	      4.14897449	     -3.98206427
      5.39000000	      6.53877623	     -1.38964678	      7.56050223	      0.03570870	      0.91871149	      0.03979850	     -6.43103326	      8.15821759	     -4.68728642	     -8.97700024	     24.33246092	     -1.42042029	      0.00000000	     21.04512169	     -0.70810554	      1.71433673	    -56.91290696	     15.59077733	      3.67080225	      0.00000000	    -27.65937010	      3.53632769	     -3.16174166
      5.40000000	      6.29184149	     -0.98678135	      7.25795541	      0.05180031	      0.91883687	      0.04009097	     -8.18406128	      7.94289030	     -3.66433562	     -7.44168734	     24.05974441	     -2.29993239	      0.00000000	     21.86239166	     -0.15110685	      1.33719275	    -54.11606656	     15.80394447	      2.62731961	      0.00000000	    -27.52609849	      2.99763256	     -2.37408887
      5.41000000	      6.07636955	     -0.62797259	      6.98570294	      0.06792478	      0.91851082	      0.04023964	     -9.91662693	      7.73274943	     -2.94562820	     -5.98795720	     23.89417329	     -2.92111240	      0.00000000	     22.52550252	      0.37288545	      0.99998336	    -51.06339798	     15.87959109	      1.48747002	      0.00000000	    -27.41316447	      2.55639997	     -1.63762827
      5.42000000	      5.91304014	     -0.33414687	      6.76035980	      0.08407841	      0.91778502	      0.04020595	    -11.61854276	      7.55746874	     -2.73438146	     -4.66973365	     23.95638517	     -2.99500052	      0.00000000	     23.01091407	      0.85817477	      0.74228273	    -47.76552805	     15.85470516	      0.24738439	      0.00000000	    -27.33774039	      2.24772916	     -0.95066864
      5.43000000	      5.84513789	     -0.07568366	      6.55891148	      0.10031622	      0.91677759	      0.04007680	    -13.41302630	      7.42044365	     -2.60908250	     -3.37283749	     23.94109470	     -3.10207837	      0.00000000	     23.24494030	      1.30396774	      0.51422690	    -44.21774412	     15.83910610	     -0.83926181	      0.00000000	    -27.34694933	      2.01300107	     -0.34088624
      5.44000000	      5.86755413	      0.13281565	      6.38213200	      0.11665860	      0.91553107	      0.03982494	    -15.28282952	      7.33367715	     -2.57606255	     -2.12621215	     23.87933437	     -3.15731017	      0.00000000	     23.22347963	      1.71005102	      0.33893896	    -40.42983572	     15.82300349	     -1.76898075	      0.00000000	    -27.42285629	      1.87001293	      0.20247095
